<?xml version="1.0" encoding="UTF-8" standalone="no"?>
<svg width="16px" height="33px" viewBox="0 0 16 33" version="1.1" xmlns="http://www.w3.org/2000/svg" xmlns:xlink="http://www.w3.org/1999/xlink" xmlns:sketch="http://www.bohemiancoding.com/sketch/ns">
    <!-- Generator: Sketch 3.3.1 (12005) - http://www.bohemiancoding.com/sketch -->
    <title>Shape 3 Copy</title>
    <desc>Created with Sketch.</desc>
    <defs></defs>
    <g id="Page-1" stroke="none" stroke-width="1" fill="none" fill-rule="evenodd" sketch:type="MSPage">
        <g id="-" sketch:type="MSArtboardGroup" transform="translate(-153.000000, -382.000000)" fill="#333333">
            <path d="M156.971903,414.034679 L156.971903,399.277653 L153.069974,399.277653 L153.069974,393.964217 L156.971903,393.964217 L156.971903,389.426064 C156.971903,385.859881 159.276819,382.585288 164.587674,382.585288 C166.73805,382.585288 168.328468,382.791438 168.328468,382.791438 L168.202886,387.753072 C168.202886,387.753072 166.581216,387.737302 164.8116,387.737302 C162.896332,387.737302 162.589545,388.619817 162.589545,390.084939 C162.589545,391.242988 162.589545,387.616595 162.589545,393.964504 L168.355133,393.964504 L168.104255,399.27794 L162.589545,399.27794 L162.589545,414.034966 L156.971903,414.034966 L156.971903,414.034679 Z" id="Shape-3-Copy" sketch:type="MSShapeGroup"></path>
        </g>
    </g>
</svg>