<?xml version="1.0" encoding="UTF-8" standalone="no"?>
<svg width="34px" height="28px" viewBox="0 0 34 28" version="1.1" xmlns="http://www.w3.org/2000/svg" xmlns:xlink="http://www.w3.org/1999/xlink" xmlns:sketch="http://www.bohemiancoding.com/sketch/ns">
    <!-- Generator: Sketch 3.3.1 (12005) - http://www.bohemiancoding.com/sketch -->
    <title>Shape 5 Copy</title>
    <desc>Created with Sketch.</desc>
    <defs></defs>
    <g id="Page-1" stroke="none" stroke-width="1" fill="none" fill-rule="evenodd" sketch:type="MSPage">
        <g id="-" sketch:type="MSArtboardGroup" transform="translate(-144.000000, -312.000000)" fill="#333333">
            <path d="M177.336104,315.792206 C176.109675,316.336248 174.791405,316.703777 173.408131,316.869123 C174.820074,316.022724 175.904659,314.682452 176.415199,313.085327 C175.093596,313.869222 173.629981,314.438266 172.072026,314.744957 C170.824596,313.415687 169.047123,312.585288 167.07997,312.585288 C163.303008,312.585288 160.240602,315.647361 160.240602,319.424323 C160.240602,319.960364 160.301107,320.482405 160.417616,320.982944 C154.733505,320.697755 149.694111,317.974876 146.321015,313.837053 C145.732302,314.847132 145.394942,316.02189 145.394942,317.275321 C145.394942,319.648173 146.60237,321.741504 148.437513,322.967933 C147.316259,322.93243 146.261843,322.624739 145.339771,322.112533 C145.339105,322.141035 145.339105,322.169704 145.339105,322.198539 C145.339105,325.512132 147.696622,328.276347 150.825367,328.90473 C150.251488,329.061075 149.647274,329.144582 149.023392,329.144582 C148.582525,329.144582 148.154158,329.101579 147.736459,329.021906 C148.607027,331.738951 151.132557,333.716439 154.125458,333.771443 C151.784775,335.60592 148.835878,336.699172 145.631461,336.699172 C145.079418,336.699172 144.535042,336.666836 144,336.603498 C147.026736,338.54415 150.621851,339.676571 154.483986,339.676571 C167.063802,339.676571 173.943006,329.255091 173.943006,320.217218 C173.943006,319.920695 173.936339,319.625838 173.923171,319.332315 C175.259775,318.36824 176.419199,317.163646 177.336104,315.792206 L177.336104,315.792206 Z" id="Shape-5-Copy" sketch:type="MSShapeGroup"></path>
        </g>
    </g>
</svg>