<?xml version="1.0" encoding="UTF-8" standalone="no"?>
<svg width="26px" height="34px" viewBox="0 0 26 34" version="1.1" xmlns="http://www.w3.org/2000/svg" xmlns:xlink="http://www.w3.org/1999/xlink" xmlns:sketch="http://www.bohemiancoding.com/sketch/ns">
    <!-- Generator: Sketch 3.3.1 (12005) - http://www.bohemiancoding.com/sketch -->
    <title>Shape 4 Copy</title>
    <desc>Created with Sketch.</desc>
    <defs></defs>
    <g id="Page-1" stroke="none" stroke-width="1" fill="none" fill-rule="evenodd" sketch:type="MSPage">
        <g id="-" sketch:type="MSArtboardGroup" transform="translate(-148.000000, -515.000000)" fill="#333333">
            <path d="M161.188778,516.170577 C152.532521,516.170577 148.167969,522.376744 148.167969,527.552124 C148.167969,530.685763 149.354364,533.473581 151.898954,534.512461 C152.316206,534.683045 152.689952,534.518329 152.810959,534.056357 C152.895138,533.73664 153.094253,532.93006 153.183086,532.594154 C153.305105,532.137241 153.257754,531.976978 152.921039,531.578747 C152.187307,530.713283 151.718455,529.592855 151.718455,528.0058 C151.718455,523.401459 155.163312,519.279528 160.688764,519.279528 C165.581457,519.279528 168.269515,522.269092 168.269515,526.261719 C168.269515,531.515006 165.944681,535.948763 162.493348,535.948763 C160.587183,535.948763 159.160392,534.372433 159.617912,532.439152 C160.165479,530.131114 161.226416,527.640148 161.226416,525.974176 C161.226416,524.482834 160.425907,523.23897 158.769041,523.23897 C156.820584,523.23897 155.255383,525.254608 155.255383,527.954807 C155.255383,529.674605 155.836541,530.83773 155.836541,530.83773 C155.836541,530.83773 153.842554,539.286171 153.493091,540.765574 C152.796996,543.712238 153.388474,547.324442 153.438455,547.689285 C153.467797,547.905398 153.745627,547.956795 153.871491,547.793496 C154.05118,547.558969 156.371765,544.694055 157.160739,541.831367 C157.383934,541.020741 158.442241,536.823332 158.442241,536.823332 C159.075201,538.030773 160.925315,539.09434 162.892793,539.09434 C168.749699,539.09434 172.723305,533.754851 172.723305,526.607743 C172.723305,521.203703 168.145877,516.170577 161.188778,516.170577 L161.188778,516.170577 Z" id="Shape-4-Copy" sketch:type="MSShapeGroup"></path>
        </g>
    </g>
</svg>